<svg xmlns="http://www.w3.org/2000/svg" width="1200" height="630" viewBox="0 0 1200 630">
  <defs>
    <radialGradient id="g" cx="0.85" cy="0.2" r="0.7"><stop offset="0" stop-color="#e3f1ec"/><stop offset="1" stop-color="#fbfaf7"/></radialGradient>
    <filter id="s" x="-20%" y="-20%" width="140%" height="140%"><feDropShadow dx="0" dy="18" stdDeviation="22" flood-color="#14281f" flood-opacity="0.18"/></filter>
  </defs>
  <rect width="1200" height="630" fill="url(#g)"/>
  <g font-family="'Hiragino Sans','Noto Sans JP','Noto Sans CJK JP','IPAGothic',sans-serif">
    <rect x="72" y="72" width="52" height="52" rx="13" fill="#0f6e5a"/>
    <path d="M86 90h24M86 98h24M86 106h14" stroke="#fff" stroke-width="4" stroke-linecap="round"/>
    <text x="140" y="110" font-size="34" font-weight="700" fill="#1d1d1f">ゼロ請求書</text>
    <rect x="72" y="176" width="384" height="44" rx="22" fill="#e3f1ec"/>
    <text x="96" y="206" font-size="22" font-weight="700" fill="#0f6e5a">インボイス制度（適格請求書）対応</text>
    <text x="72" y="300" font-size="62" font-weight="800" fill="#1d1d1f">登録不要・無料の</text>
    <text x="72" y="380" font-size="62" font-weight="800" fill="#0f6e5a">請求書作成ツール</text>
    <text x="72" y="450" font-size="26" fill="#3b3b40">源泉徴収・税率ごとの消費税を自動計算</text>
    <text x="72" y="492" font-size="26" fill="#3b3b40">データはブラウザの中だけ。サーバーに送信しません</text>
    <text x="72" y="566" font-size="22" font-weight="700" fill="#6b6b70">見積書・納品書・領収書も ／ PDF保存</text>
  </g>
  <g transform="translate(790 110) rotate(3)" filter="url(#s)" font-family="'Hiragino Sans','Noto Sans JP','Noto Sans CJK JP','IPAGothic',sans-serif">
    <rect width="330" height="430" rx="10" fill="#fff" stroke="#e8e6e0"/>
    <text x="28" y="56" font-size="28" font-weight="800" fill="#1d1d1f" letter-spacing="8">請求書</text>
    <rect x="28" y="84" width="150" height="3" fill="#1d1d1f"/>
    <rect x="200" y="46" width="100" height="8" rx="4" fill="#e8e6e0"/>
    <rect x="220" y="62" width="80" height="8" rx="4" fill="#e8e6e0"/>
    <rect x="28" y="108" width="274" height="50" rx="8" fill="#f4f7f5"/>
    <text x="42" y="140" font-size="15" fill="#3b3b40">ご請求金額</text>
    <text x="288" y="142" font-size="22" font-weight="800" fill="#1d1d1f" text-anchor="end">¥329,307</text>
    <g fill="#eeece6"><rect x="28" y="182" width="274" height="2"/><rect x="28" y="216" width="274" height="2"/><rect x="28" y="250" width="274" height="2"/></g>
    <g fill="#d9d7d0"><rect x="28" y="194" width="120" height="10" rx="5"/><rect x="232" y="194" width="70" height="10" rx="5"/><rect x="28" y="228" width="140" height="10" rx="5"/><rect x="242" y="228" width="60" height="10" rx="5"/></g>
    <text x="28" y="290" font-size="14" fill="#0f6e5a" font-weight="700">10%対象 / 消費税</text><text x="302" y="290" font-size="14" fill="#0f6e5a" font-weight="700" text-anchor="end">33,000</text>
    <text x="28" y="318" font-size="14" fill="#b54708" font-weight="700">源泉徴収 10.21%</text><text x="302" y="318" font-size="14" fill="#b54708" font-weight="700" text-anchor="end">−33,693</text>
    <rect x="28" y="336" width="274" height="2" fill="#1d1d1f"/>
    <text x="28" y="364" font-size="16" font-weight="800" fill="#1d1d1f">差引ご請求額</text><text x="302" y="364" font-size="16" font-weight="800" fill="#1d1d1f" text-anchor="end">¥329,307</text>
    <rect x="28" y="390" width="190" height="22" rx="5" fill="#e3f1ec"/><text x="38" y="406" font-size="12" font-weight="700" fill="#0f6e5a">登録番号 T4801234567890</text>
  </g>
</svg>
